<?xml version="1.0" encoding="utf-8"?>
<!-- Generator: Adobe Illustrator 23.0.5, SVG Export Plug-In . SVG Version: 6.00 Build 0)  -->
<svg version="1.1" id="Layer_1" xmlns="http://www.w3.org/2000/svg" xmlns:xlink="http://www.w3.org/1999/xlink" x="0px" y="0px"
	 width="32px" height="32px" viewBox="0 0 32 32" style="enable-background:new 0 0 32 32;" xml:space="preserve">
<style type="text/css">
	.st0{fill:#28C262;}
</style>
<g>
	<rect x="6.6" class="st0" width="3.8" height="3.8"/>
	<rect x="10.4" y="12.2" class="st0" width="3.8" height="3.8"/>
	<rect x="18.8" y="12.2" class="st0" width="3.8" height="3.8"/>
	<rect x="10.4" y="19.8" class="st0" width="3.8" height="3.8"/>
	<rect x="18.8" y="19.8" class="st0" width="3.8" height="3.8"/>
	<rect x="10.4" y="3.8" class="st0" width="11.3" height="3.8"/>
	<polygon class="st0" points="25.4,3.8 25.4,0 21.6,0 21.6,3.8 25.4,3.8 25.4,7.5 28.2,7.5 28.2,28.2 32,28.2 32,7.5 32,7.5 32,3.8 
			"/>
	<polygon class="st0" points="6.6,7.5 6.6,3.8 0,3.8 0,7.5 0,28.2 3.8,28.2 3.8,7.5 	"/>
	<rect x="3.8" y="28.2" class="st0" width="24.5" height="3.8"/>
</g>
</svg>
