<?xml version="1.0" encoding="utf-8"?>
<!-- Generator: Adobe Illustrator 23.0.5, SVG Export Plug-In . SVG Version: 6.00 Build 0)  -->
<svg version="1.1" id="Layer_1" xmlns="http://www.w3.org/2000/svg" xmlns:xlink="http://www.w3.org/1999/xlink" x="0px" y="0px"
	 width="21px" height="20px" viewBox="0 0 21 20" style="enable-background:new 0 0 21 20;" xml:space="preserve">
<style type="text/css">
	.st0{fill-rule:evenodd;clip-rule:evenodd;}
</style>
<path id="Фигура_18_копия_3" class="st0" d="M3.6,14l-0.2,0l0.1,0.2l0.2,0L3.6,14 M4.1,14l0,0.2l0.2,0.1l0-0.2L4.1,14
	 M4.9,15.3l-0.1,0l0,0.1l0.1,0.2c0,0.1,0.1,0.1,0.2,0.1c0,0,0.1,0,0.1-0.1l0-0.1l-0.1-0.1L4.9,15.3 M7.6,16c-0.1,0-0.2,0.1-0.2,0.2
	l0.1,0.1l0.1,0c0.1,0,0.2-0.1,0.2-0.2C7.8,16,7.7,16,7.6,16 M7,16c-0.1,0-0.2,0-0.2,0.1c0,0,0,0,0,0c0,0.1,0.1,0.1,0.2,0.1h0
	c0.1,0,0.2-0.1,0.2-0.2c0,0,0,0,0,0L7.2,16L7,16 M5.6,16c-0.1,0-0.1,0-0.2,0.1l0,0.1l0.1,0.1h0.2l0.1-0.1c0-0.1,0-0.1-0.2-0.2
	C5.7,16,5.6,16,5.6,16 M10.4,0C8.5,0,6.7,0.4,5.1,1.3C3.5,2.2,2.2,3.4,1.3,5C0.4,6.5,0,8.3,0,10.1c0,2.2,0.7,4.4,2,6.1
	C3.3,18,5.1,19.3,7.2,20c0.1,0,0.1,0,0.2,0c0.1,0,0.2,0,0.3-0.1c0.1-0.1,0.2-0.3,0.2-0.4l0-2.5l-0.5,0C7.2,17,6.9,17,6.7,17
	c-0.1,0-0.2,0-0.3,0c-0.4,0-0.8-0.2-1.2-0.4c-0.4-0.2-0.7-0.5-0.8-0.9l-0.2-0.3c-0.1-0.2-0.3-0.5-0.4-0.7c-0.2-0.2-0.4-0.4-0.6-0.5
	L2.9,14c-0.1-0.1-0.2-0.2-0.2-0.3c0-0.1,0.2-0.1,0.5-0.1l0.3,0c0.2,0.1,0.4,0.2,0.6,0.3c0.3,0.2,0.5,0.4,0.7,0.7c0,0,0,0,0,0.1
	l-0.1,0c-0.1,0-0.1,0.1,0,0.3L4.9,15H5c0,0,0,0,0,0c0.4,0.4,0.9,0.7,1.4,0.8c0.1,0,0.2,0,0.3,0c0.4,0,0.8-0.1,1.1-0.3
	c0-0.5,0.3-1,0.7-1.4c-0.8-0.1-1.5-0.2-2.3-0.4C5.6,13.5,5,13,4.5,12.4C4,11.5,3.8,10.5,3.9,9.5c0-0.4,0.1-0.9,0.2-1.3
	c0.2-0.4,0.4-0.8,0.7-1.1C4.7,6.8,4.6,6.4,4.7,6.1C4.6,5.5,4.7,4.9,5,4.3c0.1,0,0.2,0,0.3,0c0.3,0,0.6,0.1,0.9,0.2
	c0.4,0.2,0.8,0.4,1.2,0.6l0.5,0.4C8.7,5.2,9.6,5,10.5,5.1c0.9,0,1.8,0.1,2.7,0.4l0.5-0.4c0.4-0.2,0.8-0.4,1.2-0.6
	c0.3-0.1,0.6-0.2,0.9-0.2c0.1,0,0.2,0,0.3,0c0.2,0.6,0.3,1.2,0.3,1.8c0,0.3-0.1,0.7-0.2,1c0.3,0.3,0.6,0.7,0.8,1
	c0.2,0.4,0.3,0.9,0.3,1.4c0.1,1-0.2,2-0.7,2.9c-0.5,0.6-1.1,1-1.8,1.2c-0.8,0.2-1.5,0.4-2.3,0.4c0.5,0.5,0.8,1.2,0.7,1.9v3.5
	c0,0.2,0.1,0.3,0.2,0.4c0.1,0.1,0.2,0.1,0.3,0.1c0.1,0,0.1,0,0.2,0c4.3-1.4,7.1-5.4,7.1-9.9c0-1.8-0.5-3.6-1.4-5.2
	c-0.9-1.5-2.3-2.8-3.9-3.6C14.1,0.4,12.2,0,10.4,0"/>
</svg>
