<svg width="103" height="82" viewBox="0 0 103 82" fill="none" xmlns="http://www.w3.org/2000/svg">
<rect y="8.86768" width="8.86755" height="64.1192" fill="white"/>
<rect x="94.3486" width="8.65092" height="85.6982" transform="rotate(90 94.3486 0)" fill="white"/>
<rect x="94.3486" y="72.9868" width="8.65092" height="85.6982" transform="rotate(90 94.3486 72.9868)" fill="white"/>
<rect x="60.0156" y="42.7141" width="8.65092" height="17.3018" transform="rotate(90 60.0156 42.7141)" fill="white"/>
<rect x="42.7139" y="34.063" width="8.65092" height="8.65092" transform="rotate(90 42.7139 34.063)" fill="white"/>
<rect x="34.0625" y="25.4121" width="8.65092" height="8.65092" transform="rotate(90 34.0625 25.4121)" fill="white"/>
<rect x="25.4121" y="16.7612" width="8.65092" height="8.65092" transform="rotate(90 25.4121 16.7612)" fill="white"/>
<rect x="17.3018" y="8.65112" width="8.65092" height="8.65092" transform="rotate(90 17.3018 8.65112)" fill="white"/>
<rect x="94.3486" y="8.65112" width="8.65092" height="8.65092" transform="rotate(90 94.3486 8.65112)" fill="white"/>
<rect x="85.6982" y="16.7612" width="8.65092" height="8.65092" transform="rotate(90 85.6982 16.7612)" fill="white"/>
<rect x="77.0469" y="25.4121" width="8.65092" height="8.65092" transform="rotate(90 77.0469 25.4121)" fill="white"/>
<rect x="68.3965" y="34.063" width="8.65092" height="8.65092" transform="rotate(90 68.3965 34.063)" fill="white"/>
<rect x="94.1328" y="8.86768" width="8.86755" height="64.1192" fill="white"/>
</svg>
