<?xml version="1.0" encoding="utf-8"?>
<!-- Generator: Adobe Illustrator 23.0.5, SVG Export Plug-In . SVG Version: 6.00 Build 0)  -->
<svg version="1.1" id="Layer_1" xmlns="http://www.w3.org/2000/svg" xmlns:xlink="http://www.w3.org/1999/xlink" x="0px" y="0px"
	 width="22px" height="17px" viewBox="0 0 22 17" style="enable-background:new 0 0 22 17;" xml:space="preserve">
<style type="text/css">
	.st0{fill:#FFFFFF;}
</style>
<g>
	<polygon class="st0" points="22,2.8 22,0 13.2,0 13.2,3.6 11.6,3.6 11.6,6.8 8.8,6.8 8.8,13.6 11.6,13.6 11.6,12 13.6,12 13.6,9.6 
		15.2,9.6 15.2,13.6 13.2,13.6 13.2,16.4 22,16.4 22,13.6 20,13.6 20,2.8 22,2.8 	"/>
	<polygon class="st0" points="5.2,2.8 5.2,2.8 5.2,0 0,0 0,2.8 2,2.8 2,13.6 0,13.6 0,16.4 6.8,16.4 6.8,13.6 5.2,13.6 5.2,2.8 	"/>
	<polygon class="st0" points="6.8,1.6 5.2,1.6 5.2,9.6 6.8,9.6 6.8,11.6 8.8,11.6 8.8,3.6 6.8,3.6 6.8,1.6 	"/>
</g>
</svg>
