<?xml version="1.0" encoding="utf-8"?>
<!-- Generator: Adobe Illustrator 23.0.5, SVG Export Plug-In . SVG Version: 6.00 Build 0)  -->
<svg version="1.1" id="Layer_1" xmlns="http://www.w3.org/2000/svg" xmlns:xlink="http://www.w3.org/1999/xlink" x="0px" y="0px"
	 width="14.2px" height="14.2px" viewBox="0 0 14.2 14.2" style="enable-background:new 0 0 14.2 14.2;" xml:space="preserve">
<style type="text/css">
	.st0{fill-rule:evenodd;clip-rule:evenodd;}
</style>
<path id="skack" class="st0" d="M5.2,0.6c4.9-1.5,7-0.3,8.5,4.6s0.3,7-4.6,8.5s-7,0.3-8.5-4.6S0.3,2.1,5.2,0.6z M10.2,8.6l0.9-0.3
	c0.4-0.1,0.6-0.5,0.5-0.9s-0.5-0.6-0.9-0.5l0,0L9.8,7.2L9.2,5.4l0.9-0.3c0.4-0.1,0.6-0.5,0.5-0.9S10,3.6,9.6,3.7l0,0L8.7,4l-0.3-1
	C8.2,2.7,7.8,2.5,7.4,2.6C7.1,2.7,6.8,3.1,7,3.5l0,0l0.3,1L5.4,5.1l-0.3-1C4.9,3.8,4.5,3.6,4.1,3.7S3.5,4.2,3.7,4.6l0,0l0.3,1
	L3.1,5.9C2.7,6,2.5,6.4,2.6,6.8C2.7,7.1,3,7.3,3.3,7.3c0.1,0,0.2,0,0.3,0L4.5,7l0.6,1.8L4.2,9.1c-0.4,0.1-0.6,0.5-0.5,0.9
	c0.1,0.3,0.4,0.5,0.7,0.5c0.1,0,0.2,0,0.3,0l0.9-0.3l0.3,1c0.1,0.3,0.4,0.5,0.7,0.5c0.1,0,0.2,0,0.3,0c0.4-0.1,0.6-0.5,0.5-0.9
	l-0.3-1l1.9-0.6l0.3,1c0.1,0.3,0.4,0.5,0.7,0.5c0.1,0,0.2,0,0.3,0c0.4-0.1,0.6-0.5,0.5-0.9L10.2,8.6z M8.4,7.7L6.5,8.3L5.9,6.5
	l1.8-0.6L8.4,7.7z"/>
</svg>
