<?xml version="1.0" encoding="utf-8"?>
<!-- Generator: Adobe Illustrator 23.0.5, SVG Export Plug-In . SVG Version: 6.00 Build 0)  -->
<svg version="1.1" id="Layer_1" xmlns="http://www.w3.org/2000/svg" xmlns:xlink="http://www.w3.org/1999/xlink" x="0px" y="0px"
	 width="389px" height="325px" viewBox="0 0 389 325" style="enable-background:new 0 0 389 325;" xml:space="preserve">
<style type="text/css">
	.st0{fill:none;stroke:#28C262;stroke-width:2;stroke-linecap:round;stroke-linejoin:round;stroke-miterlimit:1.5;}
</style>
<g>
	<path class="st0" d="M162.5,46l65.9,2.7l98.2-23.3"/>
	<path class="st0" d="M146.9,57.9l65,16l118.9-36.8"/>
	<path class="st0" d="M131.1,69.8l62.9,31.1l140.9-51"/>
	<path class="st0" d="M45.6,144.3l82.1-52l66-60.3"/>
	<path class="st0" d="M42,157.7l100-54.1L210,29.7"/>
	<path class="st0" d="M38.1,171.9L157.5,116l69.4-88.6"/>
	<path class="st0" d="M165.3,305.2l-18.8-23.9l94.3-99.4l115-72.5"/>
	<path class="st0" d="M143.4,300.6L124,277.1l92-114.7l133.9-69.5"/>
	<path class="st0" d="M122,296l-19.3-22.9l91.7-127.8l150.2-67.8"/>
	<path class="st0" d="M115,82l59.8,47.9l164.9-66.8"/>
	<path class="st0" d="M301.9,16.9l-5.6,63.8l42.8,65l13.1,28.1"/>
	<path class="st0" d="M281.8,19.7l-27.4,78l61.7,67.2l14,27.7"/>
	<path class="st0" d="M262.6,22.5L214,113.9l78.6,70.5l14.9,27"/>
	<path class="st0" d="M29.1,202.7l125.4-41.9l89.9,63.3l16.7,26.3"/>
	<path class="st0" d="M24.5,219.5l108.1-25.2l87.4,50l17.8,25.7"/>
	<path class="st0" d="M19.5,237.2l89.3-6.9l86.2,34.6l18.8,25.2"/>
	<path class="st0" d="M99,94.2l38.8,50.7L64.2,265.8l19.9,21.9"/>
	<path class="st0" d="M82.4,106.6l19.3,52.8L46.3,262.5L66.5,284"/>
	<path class="st0" d="M65.7,119.4l0.9,54.1l-37,85.9l19.6,20.9"/>
	<path class="st0" d="M322.8,14l10.1,23.8l41.2,117.8"/>
	<path class="st0" d="M189.5,310.5l184.7-154.9l-12.4-28.4"/>
	<path class="st0" d="M33.7,186.8l141.4-56.8l93.7,74.2l15.6,26.6"/>
	<path class="st0" d="M14,256.4l35.3-124.6L178,34.2L322.8,14l38.9,113.2l-192,158.5"/>
	<path class="st0" d="M102.7,291.7l-19.5-22.5L244,25"/>
	<path class="st0" d="M169.8,285.7L14,256.4L33.7,277l155.8,33.4L169.8,285.7z"/>
</g>
<path class="st0" d="M162.5,46l65.9,2.7l98.2-23.3"/>
<path class="st0" d="M146.9,57.9l65,16l118.9-36.8"/>
<path class="st0" d="M131.1,69.8l62.9,31.1l140.9-51"/>
<path class="st0" d="M45.6,144.3l82.1-52l66-60.3"/>
<path class="st0" d="M42,157.7l100-54.1L210,29.7"/>
<path class="st0" d="M38.1,171.9L157.5,116l69.4-88.6"/>
<path class="st0" d="M165.3,305.2l-18.8-23.9l94.3-99.4l115-72.5"/>
<path class="st0" d="M143.4,300.6L124,277.1l92-114.7l133.9-69.5"/>
<path class="st0" d="M122,296l-19.3-22.9l91.7-127.8l150.2-67.8"/>
<path class="st0" d="M115,82l59.8,47.9l164.9-66.8"/>
<path class="st0" d="M301.9,16.9l-5.6,63.8l42.8,65l13.1,28.1"/>
<path class="st0" d="M281.8,19.7l-27.4,78l61.7,67.2l14,27.7"/>
<path class="st0" d="M262.6,22.5L214,113.9l78.6,70.5l14.9,27"/>
<path class="st0" d="M29.1,202.7l125.4-41.9l89.9,63.3l16.7,26.3"/>
<path class="st0" d="M24.5,219.5l108.1-25.2l87.4,50l17.8,25.7"/>
<path class="st0" d="M19.5,237.2l89.3-6.9l86.2,34.6l18.8,25.2"/>
<path class="st0" d="M99,94.2l38.8,50.7L64.2,265.8l19.9,21.9"/>
<path class="st0" d="M82.4,106.6l19.3,52.8L46.3,262.5L66.5,284"/>
<path class="st0" d="M65.7,119.4l0.9,54.1l-37,85.9l19.6,20.9"/>
<path class="st0" d="M322.8,14l10.1,23.8l41.2,117.8"/>
<path class="st0" d="M189.5,310.5l184.7-154.9l-12.4-28.4"/>
<path class="st0" d="M33.7,186.8l141.4-56.8l93.7,74.2l15.6,26.6"/>
<path class="st0" d="M14,256.4l35.3-124.6L178,34.2L322.8,14l38.9,113.2l-192,158.5"/>
<path class="st0" d="M102.7,291.7l-19.5-22.5L244,25"/>
<path class="st0" d="M169.8,285.7L14,256.4L33.7,277l155.8,33.4L169.8,285.7z"/>
</svg>
