<svg width="149" height="101" viewBox="0 0 149 101" fill="none" xmlns="http://www.w3.org/2000/svg">
<path d="M35.7374 58.488L53.3866 68.6611L53.3866 89.0043L35.7374 99.1774L18.0882 89.0043L18.0882 68.6611L35.7374 58.488Z" fill="white" stroke="white" stroke-width="2"/>
<path d="M55.571 1.10901V19.5854H52.0453L42.7939 8.36722V19.5854H38.5527V1.10901H42.1049L51.3298 12.3271V1.10901H55.571Z" fill="#28C262"/>
<path d="M62.6877 18.8591C61.4952 18.235 60.5626 17.3679 59.8912 16.2595C59.2192 15.1505 58.8838 13.8935 58.8838 12.4851C58.8838 11.0773 59.2192 9.81866 59.8912 8.71021C60.5626 7.60176 61.4952 6.73577 62.6877 6.11057C63.8807 5.48593 65.228 5.17389 66.73 5.17389C68.2321 5.17389 69.5755 5.48593 70.7591 6.11057C71.9434 6.73577 72.8709 7.60176 73.5424 8.71021C74.2138 9.81866 74.5498 11.0773 74.5498 12.4851C74.5498 13.8935 74.2138 15.1505 73.5424 16.2595C72.8709 17.3679 71.9434 18.235 70.7591 18.8591C69.5755 19.4843 68.2321 19.7964 66.73 19.7964C65.228 19.7969 63.8807 19.4843 62.6877 18.8591ZM69.3414 15.3493C70.0211 14.6368 70.362 13.6825 70.362 12.4857C70.362 11.2894 70.0211 10.3339 69.3414 9.62149C68.6606 8.90848 67.7909 8.55225 66.73 8.55225C65.6703 8.55225 64.795 8.90848 64.106 9.62149C63.4169 10.3339 63.0721 11.2894 63.0721 12.4857C63.0721 13.6825 63.4169 14.6374 64.106 15.3493C64.795 16.0618 65.6697 16.418 66.73 16.418C67.7909 16.418 68.6606 16.0618 69.3414 15.3493Z" fill="#28C262"/>
<path d="M92.0992 0V19.5854H88.1489V17.9489C87.1244 19.1805 85.6394 19.7969 83.6961 19.7969C82.3522 19.7969 81.1377 19.4975 80.0515 18.8994C78.9642 18.3013 78.1115 17.4474 77.493 16.339C76.8744 15.23 76.5654 13.9459 76.5654 12.4857C76.5654 11.0248 76.8744 9.74021 77.493 8.63121C78.111 7.52276 78.9642 6.66947 80.0515 6.07134C81.1382 5.47266 82.3527 5.17387 83.6961 5.17387C85.5155 5.17387 86.9387 5.74549 87.9638 6.88983V0H92.0992ZM87.0092 15.3493C87.6989 14.6368 88.0431 13.6825 88.0431 12.4857C88.0431 11.2894 87.6989 10.3339 87.0092 9.62146C86.3196 8.90846 85.4538 8.55223 84.4111 8.55223C83.3502 8.55223 82.4761 8.90846 81.7871 9.62146C81.0974 10.3339 80.7532 11.2894 80.7532 12.4857C80.7532 13.6825 81.0974 14.6374 81.7871 15.3493C82.4761 16.0617 83.3502 16.418 84.4111 16.418C85.4538 16.418 86.3196 16.0617 87.0092 15.3493Z" fill="#28C262"/>
<path d="M110.072 13.6466H99.2825C99.4775 14.5269 99.9364 15.2217 100.661 15.7315C101.386 16.2424 102.287 16.4975 103.365 16.4975C104.108 16.4975 104.765 16.3876 105.339 16.1672C105.914 15.9474 106.449 15.5995 106.943 15.124L109.144 17.4999C107.8 19.0303 105.839 19.7964 103.258 19.7964C101.65 19.7964 100.228 19.4838 98.9906 18.8591C97.7535 18.235 96.7995 17.3679 96.1281 16.2595C95.4556 15.1505 95.1201 13.8935 95.1201 12.4851C95.1201 11.095 95.4523 9.8413 96.1149 8.72346C96.7775 7.60618 97.6869 6.73522 98.8452 6.11057C100.002 5.48593 101.297 5.17389 102.728 5.17389C104.124 5.17389 105.388 5.47268 106.52 6.07136C107.65 6.66949 108.538 7.5272 109.183 8.64449C109.829 9.76177 110.151 11.0597 110.151 12.5376C110.15 12.5912 110.124 12.9606 110.072 13.6466ZM100.396 9.07969C99.7595 9.60823 99.3707 10.3301 99.2297 11.2441H106.254C106.113 10.3472 105.724 9.62977 105.087 9.09294C104.452 8.55612 103.674 8.2877 102.755 8.2877C101.818 8.28826 101.032 8.55225 100.396 9.07969Z" fill="#28C262"/>
<path d="M130.948 40.077V48.564H128.122V47.6555C127.81 48.0002 127.434 48.2614 126.997 48.4387C126.56 48.616 126.096 48.7049 125.607 48.7049C124.515 48.7049 123.643 48.3818 122.992 47.7339C122.341 47.0867 122.016 46.1157 122.016 44.8217V40.077H124.983V44.3363C124.983 44.973 125.102 45.4375 125.342 45.7297C125.581 46.0218 125.93 46.1682 126.388 46.1682C126.857 46.1682 127.239 46.0036 127.535 45.6745C127.832 45.3458 127.981 44.8422 127.981 44.1639V40.077H130.948Z" fill="#28C262"/>
<path d="M136.695 45.5894L135.821 46.4819V48.5646H132.854V36.9455H135.821V43.0367L138.851 40.0775H142.365L138.851 43.7105L142.661 48.5646H139.069L136.695 45.5894Z" fill="#28C262"/>
<path d="M22.7014 7.06271C22.334 7.27534 22.0339 7.79726 22.0339 8.22252V27.4892C22.0339 27.9145 21.7337 28.0884 21.3663 27.8758L17.1928 25.4595C16.8254 25.2469 16.2245 25.2469 15.8571 25.4595L0.667571 34.2531C0.300184 34.4657 0 34.9877 0 35.4129V52.9995C0 53.4248 0.300184 53.9473 0.667571 54.1599L15.8571 62.9529C16.2245 63.1656 16.8254 63.1656 17.1928 62.9529L32.3824 54.1599C32.7498 53.9473 33.05 53.4254 33.05 52.9995V1.84521C33.05 1.41995 32.7498 1.24598 32.3824 1.45861L22.7014 7.06271ZM17.1923 50.1983C16.8249 50.4109 16.224 50.4109 15.8566 50.1983L11.6831 47.7826C11.3157 47.57 11.0156 47.048 11.0156 46.6228V41.7902C11.0156 41.365 11.3157 40.843 11.6831 40.6304L15.8566 38.2141C16.224 38.0015 16.8249 38.0015 17.1923 38.2141L21.3657 40.6304C21.7331 40.843 22.0333 41.365 22.0333 41.7902V46.6228C22.0333 47.048 21.7331 47.57 21.3657 47.7826L17.1923 50.1983Z" fill="white"/>
<path d="M71.6087 35.4129C71.6087 34.9876 71.3085 34.4657 70.9411 34.2531L55.751 25.4595C55.3836 25.2469 54.7827 25.2469 54.4153 25.4595L39.2252 34.2531C38.8578 34.4657 38.5576 34.9876 38.5576 35.4129V52.9995C38.5576 53.4248 38.8578 53.9472 39.2252 54.1599L54.4153 62.9529C54.7827 63.1655 55.0829 62.9916 55.0829 62.5663V51.3587C55.0829 50.9328 54.7827 50.4109 54.4153 50.1983L50.2413 47.782C49.8739 47.5694 49.5737 47.0475 49.5737 46.6222V41.7896C49.5737 41.3644 49.8739 40.8425 50.2413 40.6298L54.4153 38.2136C54.7827 38.0009 55.3836 38.0009 55.751 38.2136L59.925 40.6298C60.2924 40.8425 60.5926 41.3644 60.5926 41.7896V59.3763C60.5926 59.8021 60.8928 59.9755 61.2602 59.7629L70.9406 54.1593C71.308 53.9467 71.6081 53.4248 71.6081 52.999V35.4129H71.6087Z" fill="white"/>
<path d="M99.8197 31.0631C99.4523 31.2757 99.1516 31.7976 99.1516 32.2229V46.6222C99.1516 47.0475 98.8509 47.5694 98.4835 47.782L94.3106 50.1977C93.9432 50.4104 93.3417 50.4104 92.9743 50.1977L88.8014 47.782C88.434 47.5694 88.1333 47.0475 88.1333 46.6222V32.2229C88.1333 31.7976 87.8326 31.2757 87.4652 31.0631L77.7853 25.4595C77.4179 25.2469 77.1172 25.4208 77.1172 25.8461V52.9995C77.1172 53.4248 77.4179 53.9472 77.7853 54.1599L92.9743 62.9529C93.3417 63.1655 93.9432 63.1655 94.3106 62.9529L98.4835 60.5372C98.8509 60.3245 99.1516 60.4985 99.1516 60.9238V80.2214C99.1516 80.6472 99.4523 81.1691 99.8197 81.3818L109.5 86.9853C109.867 87.1979 110.168 87.024 110.168 86.5987V25.8456C110.168 25.4203 109.867 25.2463 109.5 25.459L99.8197 31.0631Z" fill="white"/>
<path d="M132.338 63.2622C132.076 63.2622 131.815 63.1943 131.58 63.059L116.433 54.2902C115.965 54.0191 115.676 53.5176 115.676 52.9747V35.4372C115.676 34.8949 115.965 34.3928 116.433 34.1217L131.58 25.3529C132.05 25.0823 132.626 25.0823 133.095 25.3529L148.243 34.1217C148.711 34.3928 149 34.8943 149 35.4372V52.9747C149 53.517 148.711 54.0191 148.243 54.2902L133.095 63.059C132.861 63.1943 132.599 63.2622 132.338 63.2622ZM118.43 52.2567L132.338 60.3074L146.246 52.2567V36.1552L132.338 28.1044L118.43 36.1552V52.2567Z" fill="#28C262"/>
<path d="M19.0752 82.4031V84.7498L23.7482 82.4031H19.0752Z" fill="#02247D"/>
<path d="M20.0615 89.0499L32.1941 96.074V82.9576L20.0615 89.0499Z" fill="#02247D"/>
<path d="M32.1959 61.5917L20.1768 68.5494L32.1959 74.5854V61.5917Z" fill="#02247D"/>
<path d="M39.3174 96.0513L51.429 89.0406L39.3174 82.9576V96.0513Z" fill="#02247D"/>
<path d="M39.3174 74.5854L51.3156 68.5599L39.3174 61.6143V74.5854Z" fill="#02247D"/>
<path d="M19.0752 72.7927V75.2631H23.9944L19.0752 72.7927Z" fill="#02247D"/>
<path d="M52.3997 84.731V82.4031H47.7646L52.3997 84.731Z" fill="#02247D"/>
<path d="M52.3994 75.2631V72.8115L47.5176 75.2631H52.3994Z" fill="#02247D"/>
<path d="M28.8586 75.2631L19.0752 70.3499V72.0333L25.5058 75.2631H28.8586Z" fill="#D0352C"/>
<path d="M46.2524 82.4031H43.0781L52.3994 87.0849V85.4904L46.2524 82.4031Z" fill="#D0352C"/>
<path d="M28.4345 82.4031L19.0752 87.1037V87.6013C19.0752 87.9746 19.2195 88.3226 19.4569 88.5954L31.7867 82.4031H28.4345Z" fill="#D0352C"/>
<path d="M42.6532 75.2631L52.3992 70.3692V70.0644C52.3992 69.659 52.2372 69.2762 51.9596 68.9957L39.4795 75.2631H42.6532Z" fill="#D0352C"/>
<path d="M37.8946 60.7903L36.4939 59.9795C36.0246 59.7089 35.4484 59.7089 34.9792 59.9795L33.6176 60.7677V76.6886H19.0752V80.9777H33.6176V96.8975L34.9792 97.6856C35.2138 97.8209 35.4749 97.8888 35.7365 97.8888C35.9981 97.8888 36.2592 97.8209 36.4939 97.6856L37.8946 96.8748V80.9777H52.3995V76.6886H37.8946V60.7903Z" fill="#D0352C"/>
</svg>
