<?xml version="1.0" encoding="utf-8"?><svg width="297" height="309" viewBox="0 0 297 309" xmlns="http://www.w3.org/2000/svg" xmlns:xlink="http://www.w3.org/1999/xlink"><svg version="1.1" id="arrow-left" width="13" height="22.8" xml:space="preserve" viewBox="0 0 13 22.8" xmlns="http://www.w3.org/2000/svg"><style>.ast0{fill:#fff}</style><path class="ast0" d="M9.8 19.5h3.3v3.3H9.8zM6.5 16.3h3.3v3.3H6.5zM3.3 13h3.3v3.3H3.3zM0 9.8h3.3v3.3H0zM3.3 6.5h3.3v3.3H3.3z"/><path class="ast0" d="M6.5 3.3h3.3v3.3H6.5zM9.8 0h3.3v3.3H9.8z"/></svg><svg version="1.1" id="arrow-link" x="13" y="23" width="14" height="13" xml:space="preserve" viewBox="0 0 14 13" xmlns="http://www.w3.org/2000/svg"><style>.bst0{fill:#272727}</style><path class="bst0" d="M.9 7L6 2l1 1-3.2 3.3h8.5V0h1.5v7.8h-10L7 11l-1 1z"/></svg><svg version="1.1" id="arrow-right" x="27" y="36" width="13" height="22.8" xml:space="preserve" viewBox="0 0 13 22.8" xmlns="http://www.w3.org/2000/svg"><style>.cst0{fill:#fff}</style><path class="cst0" d="M0 0h3.3v3.3H0zM3.3 3.3h3.3v3.3H3.3z"/><path class="cst0" d="M6.5 6.5h3.3v3.3H6.5zM9.8 9.8h3.3v3.3H9.8zM6.5 13h3.3v3.3H6.5zM3.3 16.3h3.3v3.3H3.3zM0 19.5h3.3v3.3H0z"/></svg><svg version="1.1" id="calendar" x="40" y="59" width="32" height="32" xml:space="preserve" viewBox="0 0 32 32" xmlns="http://www.w3.org/2000/svg"><style>.dst0{fill:#28c262}</style><path class="dst0" d="M6.6 0h3.8v3.8H6.6zM10.4 12.2h3.8V16h-3.8zM18.8 12.2h3.8V16h-3.8zM10.4 19.8h3.8v3.8h-3.8zM18.8 19.8h3.8v3.8h-3.8zM10.4 3.8h11.3v3.8H10.4z"/><path class="dst0" d="M25.4 3.8V0h-3.8v3.8h3.8v3.7h2.8v20.7H32V3.8zM6.6 7.5V3.8H0v24.4h3.8V7.5zM3.8 28.2h24.5V32H3.8z"/></svg><svg version="1.1" id="fb" x="72" y="91" width="16" height="24" xml:space="preserve" viewBox="0 0 16 24" xmlns="http://www.w3.org/2000/svg"><style>.est0{fill:#fff}</style><path class="est0" d="M15.3 5.7V0H7v1.6H5.4v1.6H3.8v4.7H.7v5.7h3.1V24h6.3V13.6h3.1V7.8h-3.1V5.7h5.2z"/></svg><svg version="1.1" id="gh" x="88" y="115" width="21" height="20" xml:space="preserve" viewBox="0 0 21 20" xmlns="http://www.w3.org/2000/svg"><style>.fst0{fill-rule:evenodd;clip-rule:evenodd}</style><path id="fФигура_18_копия_3" class="fst0" d="M3.6 14h-.2l.1.2h.2l-.1-.2m.5 0v.2l.2.1v-.2l-.2-.1m.8 1.3h-.1v.1l.1.2c0 .1.1.1.2.1 0 0 .1 0 .1-.1v-.1l-.1-.1-.2-.1m2.7.7c-.1 0-.2.1-.2.2l.1.1h.1c.1 0 .2-.1.2-.2s-.1-.1-.2-.1M7 16c-.1 0-.2 0-.2.1s.1.1.2.1.2-.1.2-.2H7m-1.4 0c-.1 0-.1 0-.2.1v.1l.1.1h.2l.1-.1c0-.1 0-.1-.2-.2.1 0 0 0 0 0m4.8-16C8.5 0 6.7.4 5.1 1.3 3.5 2.2 2.2 3.4 1.3 5 .4 6.5 0 8.3 0 10.1c0 2.2.7 4.4 2 6.1C3.3 18 5.1 19.3 7.2 20h.2c.1 0 .2 0 .3-.1.1-.1.2-.3.2-.4V17H6.4c-.4 0-.8-.2-1.2-.4-.4-.2-.7-.5-.8-.9l-.2-.3c-.1-.2-.3-.5-.4-.7-.2-.2-.4-.4-.6-.5l-.3-.2c-.1-.1-.2-.2-.2-.3 0-.1.2-.1.5-.1h.3l.6.3c.3.2.5.4.7.7v.1h-.1c-.1 0-.1.1 0 .3H5c.4.4.9.7 1.4.8h.3c.4 0 .8-.1 1.1-.3 0-.5.3-1 .7-1.4-.8-.1-1.5-.2-2.3-.4-.6-.2-1.2-.7-1.7-1.3-.5-.9-.7-1.9-.6-2.9 0-.4.1-.9.2-1.3.2-.4.4-.8.7-1.1-.1-.3-.2-.7-.1-1-.1-.6 0-1.2.3-1.8h.3c.3 0 .6.1.9.2l1.2.6.5.4c.8-.3 1.7-.5 2.6-.4.9 0 1.8.1 2.7.4l.5-.4 1.2-.6c.3-.1.6-.2.9-.2h.3c.2.6.3 1.2.3 1.8 0 .3-.1.7-.2 1 .3.3.6.7.8 1 .2.4.3.9.3 1.4.1 1-.2 2-.7 2.9-.5.6-1.1 1-1.8 1.2-.8.2-1.5.4-2.3.4.5.5.8 1.2.7 1.9v3.5c0 .2.1.3.2.4.1.1.2.1.3.1h.2c4.3-1.4 7.1-5.4 7.1-9.9 0-1.8-.5-3.6-1.4-5.2-.9-1.5-2.3-2.8-3.9-3.6C14.1.4 12.2 0 10.4 0"/></svg><svg version="1.1" id="location" x="109" y="135" width="32" height="32" xml:space="preserve" viewBox="0 0 32 32" xmlns="http://www.w3.org/2000/svg"><style>.gst0{fill:#28c262}</style><path class="gst0" d="M24.1 3.8h-6.4V0h-3.9v3.8H7.4v3.8h16.7zM7.4 28.2h6.4V32h3.9v-3.8h6.4v-3.8H7.4z"/><path class="gst0" d="M3.9 20.6h6.9v3.8H3.9zM7.9 11.4h2.9V7.6H3.9v6.5h4z"/><path class="gst0" d="M7.9 17.9v-3.8h-4v6.5h4zM17.7 20.7v-2.8h3v-3.8h-3v-2.8h-3.9v2.8h-3v3.8h3v2.8zM28.1 14.1H32v3.8h-3.9zM0 14.1h3.9v3.8H0zM24.1 17.9v2.7h-3.4v3.8h7.4V14.1h-4z"/><path class="gst0" d="M20.7 11.4h3.4v2.7h4V7.6h-7.4z"/></svg><svg width="32" height="25.48" fill="none" viewBox="0 0 103 82" id="mail" x="141" y="167" xmlns="http://www.w3.org/2000/svg"><path fill="#fff" d="M0 8.868h8.868v64.119H0zM94.349 0v8.651H8.65V.001zM94.348 72.987v8.651H8.65v-8.65zM60.016 42.714v8.651H42.714v-8.65zM42.714 34.063v8.651h-8.651v-8.65zM34.063 25.413v8.65h-8.651v-8.65zM25.412 16.761v8.651h-8.65v-8.65z"/><path fill="#fff" d="M17.302 8.651v8.651H8.65v-8.65zM94.349 8.652v8.65h-8.651v-8.65zM85.698 16.761v8.651h-8.65v-8.651zM77.047 25.412v8.651h-8.651v-8.65zM68.397 34.063v8.651h-8.651v-8.65z"/><path fill="#fff" d="M94.133 8.868h8.868v64.119h-8.868z"/></svg><svg version="1.1" id="med" x="173" y="193" width="22" height="17" xml:space="preserve" viewBox="0 0 22 17" xmlns="http://www.w3.org/2000/svg"><style>.ist0{fill:#fff}</style><path class="ist0" d="M22 2.8V0h-8.8v3.6h-1.6v3.2H8.8v6.8h2.8V12h2V9.6h1.6v4h-2v2.8H22v-2.8h-2V2.8h2zM5.2 2.8V0H0v2.8h2v10.8H0v2.8h6.8v-2.8H5.2V2.8z"/><path class="ist0" d="M6.8 1.6H5.2v8h1.6v2h2v-8h-2v-2z"/></svg><svg version="1.1" id="play" x="195" y="210" width="23.74" height="32" xml:space="preserve" viewBox="0 0 51.2 69" xmlns="http://www.w3.org/2000/svg"><style>.jst0{fill:#fff}</style><path class="jst0" d="M41.6 30.9h9.5v8.3h-9.5zM33.3 23.8h8.3v7.1h-8.3zM33.3 39.3h8.3v7.1h-8.3zM25 16.7h9.5v7.1H25zM25 46.4h9.5v8.3H25zM15.5 8.3H25v8.3h-9.5zM7.1 0h8.3v7.1H7.1zM15.5 54.7H25v7.1h-9.5zM7.1 61.9h8.3V69H7.1zM0 7.7h7.7v10.2H0zM0 17.9h7.7V29H0zM0 29h7.7v10.2H0zM0 39.2h7.7v10.2H0z"/><path class="jst0" d="M0 49.4h7.7v11.9H0z"/></svg><svg version="1.1" id="sl" x="219" y="242" width="14.2" height="14.2" xml:space="preserve" viewBox="0 0 14.2 14.2" xmlns="http://www.w3.org/2000/svg"><style>.kst0{fill-rule:evenodd;clip-rule:evenodd}</style><path id="kskack" class="kst0" d="M5.2.6c4.9-1.5 7-.3 8.5 4.6s.3 7-4.6 8.5-7 .3-8.5-4.6-.3-7 4.6-8.5zm5 8l.9-.3c.4-.1.6-.5.5-.9s-.5-.6-.9-.5l-.9.3-.6-1.8.9-.3c.4-.1.6-.5.5-.9s-.6-.6-1-.5l-.9.3-.3-1c-.2-.3-.6-.5-1-.4-.3.1-.6.5-.4.9l.3 1-1.9.6-.3-1c-.2-.3-.6-.5-1-.4s-.6.5-.4.9l.3 1-.9.3c-.4.1-.6.5-.5.9.1.3.4.5.7.5h.3l.9-.3.6 1.8-.9.3c-.4.1-.6.5-.5.9.1.3.4.5.7.5h.3l.9-.3.3 1c.1.3.4.5.7.5h.3c.4-.1.6-.5.5-.9l-.3-1L9 9.2l.3 1c.1.3.4.5.7.5h.3c.4-.1.6-.5.5-.9l-.6-1.2zm-1.8-.9l-1.9.6-.6-1.8 1.8-.6.7 1.8z"/></svg><svg version="1.1" id="tw" x="234" y="257" width="23" height="21" xml:space="preserve" viewBox="0 0 23 21" xmlns="http://www.w3.org/2000/svg"><style>.lst0{fill:#fff}</style><path class="lst0" d="M19.4 6.4V3.6H18V2.2h-1.4V.8h-5.1v1.4h-1.4v1.4H8.8v2.8H6.9V5H5.1V3.6H3.7V2.2H.9v8h1.4v1.4h1.4V13h2.8v1.4H5.1v1.4H3.7v1.4H2.3V20h12.9v-1.4h1.4v-1.4H18v-1.4h1.4v-5.2h1.4V9.3h1.4V6.4h-2.8z"/></svg><svg width="16" height="16" viewBox="0 0 16 16" id="we" x="257" y="278" xmlns="http://www.w3.org/2000/svg"><path d="M13.7 2.3C15.2 3.9 16 5.9 16 8s-.8 4.1-2.3 5.7C12.1 15.2 10.1 16 8 16s-4.1-.8-5.7-2.3C.8 12.1 0 10.1 0 8s.8-4.1 2.3-5.7S5.9 0 8 0s4.1.8 5.7 2.3zm-.8 10.6c1-1 1.6-2.2 1.9-3.5-.2.3-.4.4-.5-.3-.1-1.1-1.2-.4-1.8-.8-.7.5-2.2-.9-2 .6.4.7 2.2-.9 1.3.5-.6 1-2.1 3.3-1.9 4.5 0 1.7-1.8.4-2.4-.2-.4-1.1-.1-3.1-1.2-3.7-1.1 0-2.1-.1-2.6-1.4-.2-.9.3-2.3 1.3-2.5 1.5-.9 2 1.1 3.4 1.1.4-.4 1.6-.6 1.7-1.1-.9-.2 1.1-.8-.1-1.1-.7.1-1.1.7-.7 1.2-1.4.3-1.4-1.9-2.7-1.2 0 1.1-2.1.4-.7.1.5-.1-.7-.7-.1-.6.3 0 1.4-.4 1.1-.7.6-.4 1.1.9 1.7 0 .5-.7-.1-.9-.6-.5-.3-.4.5-1.1 1.2-1.4.2-.1.5-.2.7-.1.4.4 1.1.4 1.1-.1-.9-.5-1.9-.7-3-.7-1.5 0-3 .5-4.2 1.4.3.1.5.3.2.5-.2.8-1.2 1.7-2.1 1.6-.4.8-.7 1.6-.8 2.5.7.2.9.7.7.9-.4.3-.6.7-.7 1.2.2 1.4.9 2.8 2 3.8C4.4 14.3 6.1 15 8 15s3.6-.7 4.9-2.1z"/></svg><svg version="1.1" id="yt" x="273" y="294" width="24" height="15" xml:space="preserve" viewBox="0 0 24 15" xmlns="http://www.w3.org/2000/svg"><style>.nst0{fill:#fff}</style><path class="nst0" d="M22.9 3.5V1.8h-1.1V0H2.3v1.8H1.1v1.7H0v8h1.1v1.6h1.2v1.8h19.5v-1.8h1.1v-1.6H24v-8h-1.1zM15 8.1h-1.2v1.1h-1.2v1.2h-2.3v1.5H8.6V3h1.7v1.6h2.3v1.2h1.2v1.1H15v1.2z"/></svg></svg>